<svg xmlns="http://www.w3.org/2000/svg" xmlns:xlink="http://www.w3.org/1999/xlink" width="500" zoomAndPan="magnify" viewBox="0 0 375 374.999991" height="500" preserveAspectRatio="xMidYMid meet" version="1.0"><defs><g/></defs><g fill="#c44ee6" fill-opacity="1"><g transform="translate(29.507815, 272.331892)"><g><path d="M 82.5625 -190.53125 C 92.695312 -190.53125 102.601562 -189.054688 112.28125 -186.109375 C 121.957031 -183.160156 129.140625 -180.25 133.828125 -177.375 L 140.640625 -172.84375 L 123.390625 -138.8125 C 122.035156 -139.726562 120.144531 -140.898438 117.71875 -142.328125 C 115.300781 -143.765625 110.765625 -145.691406 104.109375 -148.109375 C 97.460938 -150.535156 91.265625 -151.75 85.515625 -151.75 C 78.410156 -151.75 72.925781 -150.234375 69.0625 -147.203125 C 65.207031 -144.179688 63.28125 -140.101562 63.28125 -134.96875 C 63.28125 -132.394531 64.1875 -130.007812 66 -127.8125 C 67.820312 -125.625 70.925781 -123.28125 75.3125 -120.78125 C 79.695312 -118.289062 83.550781 -116.285156 86.875 -114.765625 C 90.195312 -113.253906 95.335938 -110.988281 102.296875 -107.96875 C 114.398438 -102.832031 124.722656 -95.835938 133.265625 -86.984375 C 141.804688 -78.140625 146.078125 -68.125 146.078125 -56.9375 C 146.078125 -46.195312 144.148438 -36.816406 140.296875 -28.796875 C 136.441406 -20.785156 131.148438 -14.507812 124.421875 -9.96875 C 117.691406 -5.4375 110.242188 -2.078125 102.078125 0.109375 C 93.910156 2.304688 85.0625 3.40625 75.53125 3.40625 C 67.363281 3.40625 59.347656 2.570312 51.484375 0.90625 C 43.617188 -0.757812 37.039062 -2.835938 31.75 -5.328125 C 26.457031 -7.828125 21.691406 -10.285156 17.453125 -12.703125 C 13.222656 -15.117188 10.128906 -17.160156 8.171875 -18.828125 L 5.21875 -21.328125 L 26.53125 -57.15625 C 28.351562 -55.644531 30.847656 -53.71875 34.015625 -51.375 C 37.191406 -49.03125 42.828125 -45.890625 50.921875 -41.953125 C 59.015625 -38.023438 66.160156 -36.0625 72.359375 -36.0625 C 90.347656 -36.0625 99.34375 -42.1875 99.34375 -54.4375 C 99.34375 -57.007812 98.703125 -59.390625 97.421875 -61.578125 C 96.140625 -63.773438 93.867188 -65.96875 90.609375 -68.15625 C 87.359375 -70.351562 84.484375 -72.09375 81.984375 -73.375 C 79.492188 -74.664062 75.414062 -76.632812 69.75 -79.28125 C 64.082031 -81.925781 59.882812 -83.925781 57.15625 -85.28125 C 45.820312 -90.882812 37.050781 -97.878906 30.84375 -106.265625 C 24.644531 -114.660156 21.546875 -123.695312 21.546875 -133.375 C 21.546875 -150.15625 27.742188 -163.875 40.140625 -174.53125 C 52.546875 -185.195312 66.6875 -190.53125 82.5625 -190.53125 Z M 82.5625 -190.53125 "/></g></g></g><g fill="#c44ee6" fill-opacity="1"><g transform="translate(174.678773, 272.331892)"><g><path d="M 113.1875 -38.5625 C 119.6875 -38.5625 126 -39.539062 132.125 -41.5 C 138.25 -43.46875 142.75 -45.363281 145.625 -47.1875 L 149.9375 -50.125 L 168.078125 -13.84375 C 167.472656 -13.382812 166.640625 -12.773438 165.578125 -12.015625 C 164.523438 -11.265625 162.066406 -9.867188 158.203125 -7.828125 C 154.347656 -5.785156 150.226562 -4.007812 145.84375 -2.5 C 141.457031 -0.988281 135.710938 0.367188 128.609375 1.578125 C 121.503906 2.796875 114.171875 3.40625 106.609375 3.40625 C 89.222656 3.40625 72.738281 -0.863281 57.15625 -9.40625 C 41.582031 -17.957031 29.03125 -29.71875 19.5 -44.6875 C 9.976562 -59.65625 5.21875 -75.832031 5.21875 -93.21875 C 5.21875 -106.375 8.015625 -119 13.609375 -131.09375 C 19.203125 -143.195312 26.648438 -153.554688 35.953125 -162.171875 C 45.253906 -170.796875 56.101562 -177.675781 68.5 -182.8125 C 80.90625 -187.957031 93.609375 -190.53125 106.609375 -190.53125 C 118.703125 -190.53125 129.851562 -189.09375 140.0625 -186.21875 C 150.269531 -183.351562 157.492188 -180.484375 161.734375 -177.609375 L 168.078125 -173.296875 L 149.9375 -137 C 148.875 -137.90625 147.285156 -139 145.171875 -140.28125 C 143.054688 -141.570312 138.820312 -143.273438 132.46875 -145.390625 C 126.113281 -147.515625 119.6875 -148.578125 113.1875 -148.578125 C 102.90625 -148.578125 93.679688 -146.910156 85.515625 -143.578125 C 77.347656 -140.253906 70.878906 -135.867188 66.109375 -130.421875 C 61.347656 -124.984375 57.71875 -119.125 55.21875 -112.84375 C 52.726562 -106.570312 51.484375 -100.1875 51.484375 -93.6875 C 51.484375 -79.46875 56.8125 -66.722656 67.46875 -55.453125 C 78.132812 -44.191406 93.375 -38.5625 113.1875 -38.5625 Z M 113.1875 -38.5625 "/></g></g></g></svg>